<svg xmlns="http://www.w3.org/2000/svg" viewBox="0 0 2490 721" fill="#ffffff" role="img" aria-label="crawl">
  <g transform="translate(-13 690) scale(1 -1)">
    <path transform="translate(0 0)" d="M276 -11C410 -11 501 71 501 189V198H394V192C394 119 356 87 273 87C177 87 140 140 140 248C140 356 177 410 273 410C356 410 394 377 394 304V298H501V307C501 426 411 507 280 507C124 507 33 403 33 248C33 94 121 -11 276 -11Z"/>
    <path transform="translate(534 0)" d="M161 0V324C161 390 185 415 250 415C313 415 332 391 332 325V305H440V338C440 431 400 507 296 507C223 507 177 467 157 421H152V500H53V0Z"/>
    <path transform="translate(997 0)" d="M189 -10C283 -10 340 31 369 78H374V0H474V302C474 423 404 507 265 507C132 507 45 427 45 316V306H149V321C149 387 180 412 259 412C337 412 371 390 371 316V289L197 263C91 248 31 205 31 123C31 36 100 -10 189 -10ZM136 131C136 168 156 181 213 189L371 213V204C371 104 294 76 224 76C161 76 136 92 136 131Z"/>
    <path transform="translate(1521 0)" d="M275 0 365 277 397 402H405L438 277L527 0H667L790 497H678L620 220L600 90H592L561 220L473 497H333L246 221L213 90H205L185 221L128 497H11L134 0Z"/>
    <path transform="translate(2322 0)" d="M161 0V670H53V0Z"/>
  </g>
</svg>
