<svg xmlns="http://www.w3.org/2000/svg" viewBox="0 0 2629 720" fill="#ffffff" role="img" aria-label="crawl">
  <g transform="translate(-8 690) scale(1 -1)">
    <path transform="translate(0 0)" d="M283 -10C422 -10 523 72 523 196V208H373V200C373 143 341 124 279 124C207 124 176 158 176 251C176 345 207 379 279 379C341 379 373 360 373 303V295H523V307C523 431 425 513 291 513C123 513 28 411 28 250C28 91 117 -10 283 -10Z"/>
    <path transform="translate(551 0)" d="M195 0V315C195 370 217 386 263 386C310 386 327 369 327 315V288H476V334C476 435 437 513 332 513C261 513 216 473 191 422H185V503H46V0Z"/>
    <path transform="translate(1044 0)" d="M185 -10C278 -10 329 31 356 68H362V0H501V298C501 432 423 513 275 513C133 513 40 434 40 314V303H183V314C183 365 207 382 268 382C327 382 359 371 359 312V296L187 270C83 254 27 206 27 128C27 37 96 -10 185 -10ZM170 140C170 161 184 171 215 176L359 198C359 120 296 104 235 104C191 104 170 113 170 140Z"/>
    <path transform="translate(1588 0)" d="M321 0 387 239 412 371H423L448 239L513 0H709L826 503H668L633 270L615 120H605L578 270L516 503H325L264 271L236 120H225L206 271L173 503H8L125 0Z"/>
    <path transform="translate(2422 0)" d="M195 0V670H46V0Z"/>
  </g>
</svg>
