<svg xmlns="http://www.w3.org/2000/svg" viewBox="0 0 2694 720" fill="#ffffff" role="img" aria-label="crawl">
  <g transform="translate(0 690) scale(1 -1)">
    <path transform="translate(0 0)" d="M289 -10C437 -10 539 70 539 207V229H351V213C351 171 329 156 282 156C226 156 206 174 206 257C206 340 226 358 282 358C329 358 351 343 351 301V285H539V307C539 444 437 524 289 524C117 524 20 422 20 252C20 88 117 -10 289 -10Z"/>
    <path transform="translate(559 0)" d="M217 0V325C217 362 233 366 264 366C299 366 306 355 306 317V266H494V359C494 460 459 524 360 524C292 524 243 486 214 436H205V514H30V0Z"/>
    <path transform="translate(1058 0)" d="M171 -10C267 -10 312 30 334 62H343V0H519V308C519 453 440 524 281 524C127 524 27 446 27 319V307H206V323C206 354 219 364 274 364C329 364 340 353 340 321V303L176 277C67 259 15 211 15 131C15 37 83 -10 171 -10ZM187 148C187 162 195 169 215 172L340 193C337 145 306 126 233 126C198 126 187 130 187 148Z"/>
    <path transform="translate(1603 0)" d="M359 0 408 217 421 342H434L447 217L495 0H750L854 514H655L634 297L625 146H612L596 297L551 514H311L267 297L251 147H237L228 297L207 514H0L104 0Z"/>
    <path transform="translate(2457 0)" d="M217 0V670H30V0Z"/>
  </g>
</svg>
